# Blender v2.74 (sub 0) OBJ File: ''
# www.blender.org
mtllib invader.mtl
o Cube.001
v -1.178807 -0.999727 0.016228
v -1.178807 -0.999727 0.847483
v -1.178345 1.000273 0.847483
v -1.178346 1.000272 0.016228
v 1.178807 0.999729 0.847483
v 1.178347 -1.000271 0.847483
v 1.178346 -1.000272 0.016228
v 1.178807 0.999729 0.016228
v -2.810212 -0.999351 0.847483
v -2.810212 -0.999351 1.650968
v -2.809750 1.000649 1.650968
v -2.809750 1.000649 0.847483
v 2.810211 0.999353 1.650968
v 2.809751 -1.000646 1.650968
v 2.809751 -1.000648 0.847483
v 2.810211 0.999353 0.847483
v -1.178807 -0.999727 0.847483
v -2.033858 -0.999530 0.847483
v -2.033395 1.000470 0.847483
v -1.178345 1.000273 0.847483
v 2.033856 0.999532 0.847483
v 2.033396 -1.000468 0.847483
v 1.178347 -1.000271 0.847483
v 1.178807 0.999729 0.847483
v -1.178345 1.000273 0.847483
v -2.033395 1.000470 0.847483
v -2.033395 1.000470 1.650968
v -1.178345 1.000273 1.650968
v 2.033856 0.999532 1.650968
v 2.033856 0.999532 0.847483
v 1.178807 0.999729 0.847483
v 1.178807 0.999729 1.650968
v -2.809750 1.000649 0.847483
v -2.809750 1.000649 1.650968
v 2.810211 0.999353 1.650968
v 2.810211 0.999353 0.847483
v -1.178807 -0.999727 1.650968
v -2.033858 -0.999530 1.650968
v -2.033858 -0.999530 0.847483
v -1.178807 -0.999727 0.847483
v 2.033396 -1.000468 0.847483
v 2.033396 -1.000468 1.650968
v 1.178347 -1.000271 1.650968
v 1.178347 -1.000271 0.847483
v -2.810212 -0.999351 1.650968
v -2.810212 -0.999351 0.847483
v 2.809751 -1.000648 0.847483
v 2.809751 -1.000646 1.650968
v -2.033395 1.000470 1.650968
v -2.809750 1.000649 1.650968
v -2.810212 -0.999351 1.650968
v -2.033858 -0.999530 1.650968
v 2.809751 -1.000646 1.650968
v 2.810211 0.999353 1.650968
v 2.033856 0.999532 1.650968
v 2.033396 -1.000468 1.650968
v -2.033858 -0.999530 -2.406246
v -2.810212 -0.999351 -2.406246
v -2.809750 1.000649 -2.406246
v -2.033395 1.000470 -2.406246
v 2.810211 0.999353 -2.406246
v 2.809751 -1.000647 -2.406246
v 2.033396 -1.000468 -2.406246
v 2.033856 0.999532 -2.406246
v 0.008850 -1.000002 -1.562971
v -1.178808 -0.999728 -1.562971
v -1.178346 1.000272 -1.562971
v 0.000230 1.000000 -1.562971
v 1.178808 0.999728 -1.562971
v 1.178346 -1.000272 -1.562971
v -0.009310 -0.999998 -1.562971
v 0.000230 1.000000 -1.562971
v -1.178807 -0.999727 1.650968
v 0.008849 -1.000002 1.650968
v 0.000230 1.000000 1.650968
v -1.178345 1.000273 1.650968
v 0.000230 1.000000 1.650968
v -0.009310 -0.999998 1.650968
v 1.178347 -1.000271 1.650968
v 1.178807 0.999729 1.650968
v -1.178346 1.000272 0.016228
v 0.000230 1.000000 0.016228
v 0.000230 1.000000 -1.562971
v -1.178346 1.000272 -1.562971
v 1.178807 0.999729 0.016228
v 1.178808 0.999728 -1.562971
v 0.000230 1.000000 0.847483
v 0.000230 1.000000 1.650968
v 0.008849 -1.000002 0.847483
v 0.008849 -1.000002 1.650968
v -0.009310 -0.999998 1.650968
v -0.009310 -0.999998 0.847483
v -1.178807 -0.999727 0.016228
v 0.008849 -1.000002 0.016228
v -0.009310 -0.999997 0.016228
v 1.178346 -1.000272 0.016228
v -2.033858 -0.999530 0.847483
v -2.033858 -0.999530 0.008471
v -2.033395 1.000470 0.008471
v -2.033395 1.000470 0.847483
v 2.033856 0.999532 0.008471
v 2.033396 -1.000468 0.008471
v 2.033396 -1.000468 0.847483
v 2.033856 0.999532 0.847483
v -2.033395 1.000470 0.008471
v -2.809750 1.000649 0.008471
v 2.810211 0.999353 0.008471
v 2.033856 0.999532 0.008471
v -2.810212 -0.999351 0.008471
v -2.033858 -0.999530 0.008471
v 2.033396 -1.000468 0.008471
v 2.809751 -1.000648 0.008471
v -2.033858 -0.999530 0.008471
v -2.033858 -0.999530 -0.789613
v -2.033395 1.000470 -0.789613
v -2.033395 1.000470 0.008471
v 2.033856 0.999532 -0.789613
v 2.033396 -1.000468 -0.789613
v 2.033396 -1.000468 0.008471
v 2.033856 0.999532 0.008471
v -2.033395 1.000470 -0.789613
v -2.809750 1.000649 -0.789613
v 2.810211 0.999353 -0.789613
v 2.033856 0.999532 -0.789613
v -2.810212 -0.999351 -0.789613
v -2.033858 -0.999530 -0.789613
v 2.033396 -1.000468 -0.789613
v 2.809751 -1.000648 -0.789613
v -2.809750 1.000649 -0.789613
v -2.810212 -0.999351 -0.789613
v -3.622759 -0.999163 -0.789613
v -3.622297 1.000836 -0.789613
v 3.622298 -1.000835 -0.789613
v 2.809751 -1.000648 -0.789613
v 2.810211 0.999353 -0.789613
v 3.622759 0.999166 -0.789613
v -3.622759 -0.999163 0.008471
v -3.622759 -0.999163 -0.789613
v 3.622298 -1.000835 0.008471
v 3.622298 -1.000835 -0.789613
v -3.622297 1.000836 -0.789613
v -3.622297 1.000836 0.008471
v 3.622759 0.999166 -0.789613
v 3.622759 0.999166 0.008471
v -3.622759 -0.999163 0.847483
v 3.622298 -1.000835 0.847483
v -3.622297 1.000836 0.847483
v 3.622759 0.999166 0.847483
v -2.810212 -0.999351 0.847483
v -2.809750 1.000649 0.847483
v -3.622297 1.000836 0.847483
v -3.622759 -0.999163 0.847483
v 3.622759 0.999166 0.847483
v 2.810211 0.999353 0.847483
v 2.809751 -1.000648 0.847483
v 3.622298 -1.000835 0.847483
v -3.622297 1.000836 0.847483
v -3.622297 1.000836 0.008471
v -3.622759 -0.999163 0.008471
v -3.622759 -0.999163 0.847483
v 3.622298 -1.000835 0.008471
v 3.622759 0.999166 0.008471
v 3.622759 0.999166 0.847483
v 3.622298 -1.000835 0.847483
v -3.622297 1.000836 0.008471
v -3.622297 1.000836 -0.789613
v -3.622759 -0.999163 -0.789613
v -3.622759 -0.999163 0.008471
v 3.622298 -1.000835 -0.789613
v 3.622759 0.999166 -0.789613
v 3.622759 0.999166 0.008471
v 3.622298 -1.000835 0.008471
v -2.033858 -0.999530 -1.568903
v -2.033395 1.000470 -1.568903
v 2.033856 0.999532 -1.568903
v 2.033396 -1.000468 -1.568903
v -2.033858 -0.999530 -1.568903
v -2.033858 -0.999530 -2.406246
v -2.033395 1.000470 -2.406246
v -2.033395 1.000470 -1.568903
v 2.033856 0.999532 -2.406246
v 2.033396 -1.000468 -2.406246
v 2.033396 -1.000468 -1.568903
v 2.033856 0.999532 -1.568903
v -2.033395 1.000470 -1.568903
v -2.809750 1.000649 -1.568903
v 2.810211 0.999353 -1.568903
v 2.033856 0.999532 -1.568903
v -2.033395 1.000470 -2.406246
v -2.809750 1.000649 -2.406246
v 2.810211 0.999353 -2.406246
v 2.033856 0.999532 -2.406246
v -2.810212 -0.999351 -1.568903
v -2.033858 -0.999530 -1.568903
v 2.033396 -1.000468 -1.568903
v 2.809751 -1.000647 -1.568903
v -2.810212 -0.999351 -2.406246
v -2.033858 -0.999530 -2.406246
v 2.033396 -1.000468 -2.406246
v 2.809751 -1.000647 -2.406246
v -2.809750 1.000649 -0.789613
v -2.809750 1.000649 -1.568903
v -2.810212 -0.999351 -1.568903
v -2.810212 -0.999351 -0.789613
v 2.809751 -1.000647 -1.568903
v 2.810211 0.999353 -1.568903
v 2.810211 0.999353 -0.789613
v 2.809751 -1.000648 -0.789613
v -2.809750 1.000649 -2.406246
v -2.810212 -0.999351 -2.406246
v 2.809751 -1.000647 -2.406246
v 2.810211 0.999353 -2.406246
v -1.178808 -0.999728 -1.562971
v -2.033858 -0.999530 -1.568903
v -2.033395 1.000470 -1.568903
v -1.178346 1.000272 -1.562971
v 2.033856 0.999532 -1.568903
v 2.033396 -1.000468 -1.568903
v 1.178346 -1.000272 -1.562971
v 1.178808 0.999728 -1.562971
v -1.178807 -0.999727 0.016228
v -1.178346 1.000272 0.016228
v -2.033395 1.000470 0.008471
v -2.033858 -0.999530 0.008471
v 2.033856 0.999532 0.008471
v 1.178807 0.999729 0.016228
v 1.178346 -1.000272 0.016228
v 2.033396 -1.000468 0.008471
v -2.033395 1.000470 1.650968
v -2.033858 -0.999530 1.650968
v -2.033858 -0.999530 2.490201
v -2.033395 1.000470 2.490201
v 2.033396 -1.000468 2.490201
v 2.033396 -1.000468 1.650968
v 2.033856 0.999532 1.650968
v 2.033856 0.999531 2.490201
v -1.178807 -0.999727 2.490201
v -2.033858 -0.999530 2.490201
v 1.178347 -1.000271 2.490201
v 2.033396 -1.000468 2.490201
v -2.033395 1.000470 2.490201
v -1.178345 1.000273 2.490201
v 2.033856 0.999531 2.490201
v 1.178807 0.999729 2.490201
v -1.178807 -0.999727 1.650968
v -1.178345 1.000273 1.650968
v -1.178345 1.000273 2.490201
v -1.178807 -0.999727 2.490201
v 1.178807 0.999729 2.490201
v 1.178807 0.999729 1.650968
v 1.178347 -1.000271 1.650968
v 1.178347 -1.000271 2.490201
v -1.178345 1.000273 2.490201
v -2.033395 1.000470 2.490201
v -2.033858 -0.999530 2.490201
v -1.178807 -0.999727 2.490201
v 2.033396 -1.000468 2.490201
v 2.033856 0.999531 2.490201
v 1.178807 0.999729 2.490201
v 1.178347 -1.000271 2.490201
v -2.033858 -0.999530 2.490201
v -2.033395 1.000470 2.490201
v -2.825012 1.000653 2.490201
v -2.825475 -0.999347 2.490201
v 2.825474 0.999349 2.490201
v 2.033856 0.999531 2.490201
v 2.033396 -1.000468 2.490201
v 2.825014 -1.000651 2.490201
v -2.033395 1.000470 2.490201
v -2.033858 -0.999530 2.490201
v -2.033858 -0.999530 3.252058
v -2.033395 1.000470 3.252058
v 2.033396 -1.000468 3.252058
v 2.033396 -1.000468 2.490201
v 2.033856 0.999531 2.490201
v 2.033856 0.999531 3.252058
v -2.825475 -0.999347 2.490201
v -2.825012 1.000653 2.490201
v -2.825012 1.000653 3.263963
v -2.825475 -0.999347 3.263963
v 2.825474 0.999349 3.263963
v 2.825474 0.999349 2.490201
v 2.825014 -1.000651 2.490201
v 2.825014 -1.000651 3.263963
v -2.033395 1.000470 3.252058
v -2.033858 -0.999530 3.252058
v -2.825475 -0.999347 3.263963
v -2.825012 1.000653 3.263963
v 2.825014 -1.000651 3.263963
v 2.033396 -1.000468 3.252058
v 2.033856 0.999531 3.252058
v 2.825474 0.999349 3.263963
v -2.033395 1.000470 2.490201
v -2.033395 1.000470 3.252058
v -2.825012 1.000653 3.263963
v -2.825012 1.000653 2.490201
v 2.825474 0.999349 3.263963
v 2.033856 0.999531 3.252058
v 2.033856 0.999531 2.490201
v 2.825474 0.999349 2.490201
v -2.033858 -0.999530 2.490201
v -2.825475 -0.999347 2.490201
v -2.825475 -0.999347 3.263963
v -2.033858 -0.999530 3.252058
v 2.825014 -1.000651 3.263963
v 2.825014 -1.000651 2.490201
v 2.033396 -1.000468 2.490201
v 2.033396 -1.000468 3.252058
v -3.622297 1.000836 0.008471
v -3.622759 -0.999163 0.008471
v -4.482418 -0.998964 0.008471
v -4.481956 1.001036 0.008471
v 4.481957 -1.001033 0.008471
v 3.622298 -1.000835 0.008471
v 3.622759 0.999166 0.008471
v 4.482417 0.998967 0.008471
v -4.481956 1.001036 0.008471
v -4.482418 -0.998964 0.008471
v -4.482418 -0.998964 -2.434118
v -4.481956 1.001036 -2.434118
v 4.481957 -1.001033 -2.434118
v 4.481957 -1.001033 0.008471
v 4.482417 0.998967 0.008471
v 4.482417 0.998967 -2.434118
v -4.481956 1.001036 -2.434118
v -4.482418 -0.998964 -2.434118
v -3.622759 -0.999162 -2.434118
v -3.622297 1.000836 -2.434118
v 3.622298 -1.000835 -2.434118
v 4.481957 -1.001033 -2.434118
v 4.482417 0.998967 -2.434118
v 3.622759 0.999166 -2.434118
v -3.622297 1.000836 -2.434118
v -3.622759 -0.999162 -2.434118
v -3.622759 -0.999163 -0.789613
v -3.622297 1.000836 -0.789613
v 3.622298 -1.000835 -0.789613
v 3.622298 -1.000835 -2.434118
v 3.622759 0.999166 -2.434118
v 3.622759 0.999166 -0.789613
v -2.033395 1.000470 -0.799010
v -1.178346 1.000272 0.016228
v -1.178346 1.000272 -1.562971
v 1.178808 0.999728 -1.562971
v 1.178807 0.999729 0.016228
v 2.033856 0.999532 -0.799010
v -2.033395 1.000470 -1.568903
v 2.033856 0.999532 -1.568903
v -2.033395 1.000470 0.008471
v 2.033856 0.999532 0.008471
v -1.178807 -0.999727 -0.773371
v -1.178346 1.000272 0.016228
v -1.178346 1.000272 -1.562971
v 1.178808 0.999728 -1.562971
v 1.178807 0.999729 0.016228
v 1.178346 -1.000272 -0.773371
v -1.178808 -0.999728 -1.562971
v 1.178346 -1.000272 -1.562971
v -1.178807 -0.999727 0.016228
v 1.178346 -1.000272 0.016228
v -1.178807 -0.999727 -0.773371
v 0.008850 -1.000002 -1.562971
v -0.009310 -0.999998 -1.562971
v 1.178346 -1.000272 -0.773371
v -1.178808 -0.999728 -1.562971
v 1.178346 -1.000272 -1.562971
v -1.178807 -0.999727 -0.773371
v -2.033858 -0.999530 0.008471
v -2.033858 -0.999530 -1.568903
v 2.033396 -1.000468 -1.568903
v 2.033396 -1.000468 0.008471
v 1.178346 -1.000272 -0.773371
v -1.178808 -0.999728 -1.562971
v 1.178346 -1.000272 -1.562971
v -1.178807 -0.999727 0.016228
v 1.178346 -1.000272 0.016228
v -4.482418 -0.998964 0.008471
v -3.622759 -0.999163 -0.789613
v -3.622759 -0.999162 -2.434118
v -4.482418 -0.998964 -2.434118
v 3.622298 -1.000835 -2.434118
v 3.622298 -1.000835 -0.789613
v 4.481957 -1.001033 0.008471
v 4.481957 -1.001033 -2.434118
v -3.622759 -0.999163 0.008471
v 3.622298 -1.000835 0.008471
v -4.481956 1.001036 0.008471
v -4.481956 1.001036 -2.434118
v -3.622297 1.000836 -2.434118
v -3.622297 1.000836 -0.789613
v 3.622759 0.999166 -2.434118
v 4.482417 0.998967 -2.434118
v 4.482417 0.998967 0.008471
v 3.622759 0.999166 -0.789613
v -3.622297 1.000836 0.008471
v 3.622759 0.999166 0.008471
v -2.033395 1.000470 -2.406246
v -2.033858 -0.999530 -2.406246
v -2.033858 -0.999530 -3.272482
v -2.033395 1.000470 -3.272482
v 2.033396 -1.000468 -3.272482
v 2.033396 -1.000468 -2.406246
v 2.033856 0.999532 -2.406246
v 2.033856 0.999532 -3.272482
v -2.033858 -0.999530 -2.406246
v -2.033395 1.000470 -2.406246
v -0.398044 1.000093 -2.406246
v -0.398506 -0.999907 -2.406246
v 0.398505 0.999909 -2.406246
v 2.033856 0.999532 -2.406246
v 2.033396 -1.000468 -2.406246
v 0.398044 -1.000091 -2.406246
v -0.398506 -0.999907 -2.406246
v -0.398044 1.000093 -2.406246
v -0.398044 1.000093 -3.270340
v -0.398506 -0.999907 -3.270340
v 0.398505 0.999909 -3.270340
v 0.398505 0.999909 -2.406246
v 0.398044 -1.000091 -2.406246
v 0.398044 -1.000091 -3.270340
v -0.398506 -0.999907 -3.270340
v -0.398044 1.000093 -3.270340
v -2.033395 1.000470 -3.272482
v -2.033858 -0.999530 -3.272482
v 2.033856 0.999532 -3.272482
v 0.398505 0.999909 -3.270340
v 0.398044 -1.000091 -3.270340
v 2.033396 -1.000468 -3.272482
v -2.033395 1.000470 -2.406246
v -2.033395 1.000470 -3.272482
v -0.398044 1.000093 -3.270340
v -0.398044 1.000093 -2.406246
v 0.398505 0.999909 -3.270340
v 2.033856 0.999532 -3.272482
v 2.033856 0.999532 -2.406246
v 0.398505 0.999909 -2.406246
v -2.033858 -0.999530 -2.406246
v -0.398506 -0.999907 -2.406246
v -0.398506 -0.999907 -3.270340
v -2.033858 -0.999530 -3.272482
v 0.398044 -1.000091 -3.270340
v 0.398044 -1.000091 -2.406246
v 2.033396 -1.000468 -2.406246
v 2.033396 -1.000468 -3.272482
vn -1.000000 0.000200 0.000000
vn 1.000000 -0.000200 0.000000
vn 0.000000 0.000000 -1.000000
vn 0.000200 1.000000 0.000000
vn -0.000200 -1.000000 0.000000
vn 0.000000 0.000000 1.000000
vn 0.006900 0.000000 -1.000000
vn -0.006900 0.000000 -1.000000
vn -0.009100 0.000000 0.999900
vn 0.009100 0.000000 0.999900
vn -0.015000 0.000000 -0.999900
vn 0.015000 0.000000 -0.999900
vn -0.001300 0.000000 1.000000
vn 0.001300 0.000000 1.000000
usemtl Material.001
s 1
f 1//1 2//1 3//1 4//1
f 5//2 6//2 7//2 8//2
f 9//1 10//1 11//1 12//1
f 13//2 14//2 15//2 16//2
f 17//3 18//3 19//3 20//3
f 21//3 22//3 23//3 24//3
f 25//4 26//4 27//4 28//4
f 29//4 30//4 31//4 32//4
f 26//4 33//4 34//4 27//4
f 35//4 36//4 30//4 29//4
f 37//5 38//5 39//5 40//5
f 41//5 42//5 43//5 44//5
f 38//5 45//5 46//5 39//5
f 47//5 48//5 42//5 41//5
f 49//6 50//6 51//6 52//6
f 53//6 54//6 55//6 56//6
f 57//3 58//3 59//3 60//3
f 61//3 62//3 63//3 64//3
f 65//3 66//3 67//3 68//3
f 69//3 70//3 71//3 72//3
f 73//6 74//6 75//6 76//6
f 77//6 78//6 79//6 80//6
f 81//4 82//4 83//4 84//4
f 83//4 82//4 85//4 86//4
f 25//4 87//4 82//4 81//4
f 82//4 87//4 31//4 85//4
f 28//4 88//4 87//4 25//4
f 87//4 88//4 32//4 31//4
f 40//5 89//5 90//5 37//5
f 91//5 92//5 44//5 43//5
f 93//5 94//5 89//5 40//5
f 92//5 95//5 96//5 44//5
f 97//2 98//2 99//2 100//2
f 101//1 102//1 103//1 104//1
f 26//4 105//4 106//4 33//4
f 107//4 108//4 30//4 36//4
f 46//5 109//5 110//5 39//5
f 111//5 112//5 47//5 41//5
f 113//2 114//2 115//2 116//2
f 117//1 118//1 119//1 120//1
f 105//4 121//4 122//4 106//4
f 123//4 124//4 108//4 107//4
f 109//5 125//5 126//5 110//5
f 127//5 128//5 112//5 111//5
f 129//3 130//3 131//3 132//3
f 133//3 134//3 135//3 136//3
f 125//5 109//5 137//5 138//5
f 139//5 112//5 128//5 140//5
f 106//4 122//4 141//4 142//4
f 143//4 123//4 107//4 144//4
f 109//5 46//5 145//5 137//5
f 146//5 47//5 112//5 139//5
f 33//4 106//4 142//4 147//4
f 144//4 107//4 36//4 148//4
f 149//6 150//6 151//6 152//6
f 153//6 154//6 155//6 156//6
f 157//1 158//1 159//1 160//1
f 161//2 162//2 163//2 164//2
f 165//1 166//1 167//1 168//1
f 169//2 170//2 171//2 172//2
f 114//2 173//2 174//2 115//2
f 175//1 176//1 118//1 117//1
f 177//2 178//2 179//2 180//2
f 181//1 182//1 183//1 184//1
f 121//4 185//4 186//4 122//4
f 187//4 188//4 124//4 123//4
f 185//4 189//4 190//4 186//4
f 191//4 192//4 188//4 187//4
f 125//5 193//5 194//5 126//5
f 195//5 196//5 128//5 127//5
f 193//5 197//5 198//5 194//5
f 199//5 200//5 196//5 195//5
f 201//1 202//1 203//1 204//1
f 205//2 206//2 207//2 208//2
f 202//1 209//1 210//1 203//1
f 211//2 212//2 206//2 205//2
f 213//7 214//7 215//7 216//7
f 217//8 218//8 219//8 220//8
f 221//9 222//9 223//9 224//9
f 225//10 226//10 227//10 228//10
f 229//1 230//1 231//1 232//1
f 233//2 234//2 235//2 236//2
f 38//5 37//5 237//5 238//5
f 239//5 43//5 42//5 240//5
f 28//4 27//4 241//4 242//4
f 243//4 29//4 32//4 244//4
f 245//2 246//2 247//2 248//2
f 249//1 250//1 251//1 252//1
f 253//6 254//6 255//6 256//6
f 257//6 258//6 259//6 260//6
f 261//6 262//6 263//6 264//6
f 265//6 266//6 267//6 268//6
f 269//1 270//1 271//1 272//1
f 273//2 274//2 275//2 276//2
f 277//2 278//2 279//2 280//2
f 281//1 282//1 283//1 284//1
f 285//11 286//11 287//11 288//11
f 289//12 290//12 291//12 292//12
f 293//5 294//5 295//5 296//5
f 297//5 298//5 299//5 300//5
f 301//4 302//4 303//4 304//4
f 305//4 306//4 307//4 308//4
f 309//3 310//3 311//3 312//3
f 313//3 314//3 315//3 316//3
f 317//2 318//2 319//2 320//2
f 321//1 322//1 323//1 324//1
f 325//6 326//6 327//6 328//6
f 329//6 330//6 331//6 332//6
f 333//1 334//1 335//1 336//1
f 337//2 338//2 339//2 340//2
f 341//4 342//4 343//4
f 344//4 345//4 346//4
f 347//4 341//4 343//4
f 344//4 346//4 348//4
f 341//4 349//4 342//4
f 345//4 350//4 346//4
f 351//1 352//1 353//1
f 354//2 355//2 356//2
f 357//1 351//1 353//1
f 354//2 356//2 358//2
f 351//1 359//1 352//1
f 355//2 360//2 356//2
f 361//5 362//5 94//5
f 95//5 363//5 364//5
f 93//5 361//5 94//5
f 95//5 364//5 96//5
f 361//5 365//5 362//5
f 363//5 366//5 364//5
f 367//5 368//5 369//5
f 370//5 371//5 372//5
f 373//5 367//5 369//5
f 370//5 372//5 374//5
f 367//5 375//5 368//5
f 371//5 376//5 372//5
f 377//4 378//4 379//4 380//4
f 381//4 382//4 383//4 384//4
f 385//4 378//4 377//4
f 383//4 382//4 386//4
f 387//5 388//5 389//5 390//5
f 391//5 392//5 393//5 394//5
f 395//5 387//5 390//5
f 394//5 393//5 396//5
f 397//2 398//2 399//2 400//2
f 401//1 402//1 403//1 404//1
f 405//3 406//3 407//3 408//3
f 409//3 410//3 411//3 412//3
f 413//1 414//1 415//1 416//1
f 417//2 418//2 419//2 420//2
f 421//13 422//13 423//13 424//13
f 425//14 426//14 427//14 428//14
f 429//5 430//5 431//5 432//5
f 433//5 434//5 435//5 436//5
f 437//4 438//4 439//4 440//4
f 441//4 442//4 443//4 444//4
